PathFileType  4	(X/Y/Z) /dataNAS/people/anoopai/OpenCap/opencap-core/Examples/Data/88c07931-43a0-4e08-ab4a-30f03d0e7de7/MarkerData/PreAugmentation
DataRate	CameraRate	NumFrames	NumMarkers	Units	OrigDataRate	OrigDataStartFrame	OrigNumFrames
60.0	60.0	9	20	m	60.0	1	76
Frame#	Time	Neck			RShoulder			RElbow			RWrist			LShoulder			LElbow			LWrist			midHip			RHip			RKnee			RAnkle			LHip			LKnee			LAnkle			LBigToe			LSmallToe			LHeel			RBigToe			RSmallToe			RHeel			
		X1	Y1	Z1	X2	Y2	Z2	X3	Y3	Z3	X4	Y4	Z4	X5	Y5	Z5	X6	Y6	Z6	X7	Y7	Z7	X8	Y8	Z8	X9	Y9	Z9	X10	Y10	Z10	X11	Y11	Z11	X12	Y12	Z12	X13	Y13	Z13	X14	Y14	Z14	X15	Y15	Z15	X16	Y16	Z16	X17	Y17	Z17	X18	Y18	Z18	X19	Y19	Z19	X20	Y20	Z20	

1	0.0000000	0.2704600	1.1339500	-0.2311600	0.2891100	1.1366400	-0.0535500	0.3381000	0.9256000	0.1192900	0.4202600	0.7551100	0.3228200	0.2621700	1.1296100	-0.4114800	0.3124000	0.9456900	-0.5973000	0.3826200	0.7739000	-0.7874500	0.2746000	0.5809400	-0.2146800	0.2962100	0.5874400	-0.0986900	0.1885700	0.2103600	-0.0671500	0.1338200	-0.1784300	-0.0386800	0.2579600	0.5748700	-0.3322400	0.1531700	0.2149600	-0.3365900	0.0904100	-0.1722200	-0.3701500	0.2638300	-0.2287400	-0.4392100	0.2585700	-0.2274000	-0.4370200	0.0535600	-0.2040300	-0.3558800	0.3178900	-0.2320000	0.0002100	0.3142200	-0.2295200	-0.0002200	0.0958800	-0.2101100	-0.0403300
2	0.0166667	0.2702900	1.1339700	-0.2311800	0.2888700	1.1366300	-0.0536300	0.3382200	0.9256700	0.1195000	0.4201800	0.7552700	0.3220600	0.2620500	1.1296700	-0.4114300	0.3123500	0.9457600	-0.5973200	0.3824200	0.7741500	-0.7873100	0.2745100	0.5813500	-0.2146100	0.2961400	0.5879900	-0.0985000	0.1886900	0.2105000	-0.0669800	0.1338500	-0.1782300	-0.0386600	0.2578300	0.5752000	-0.3323200	0.1530900	0.2146900	-0.3365500	0.0903800	-0.1724000	-0.3700700	0.2638700	-0.2288000	-0.4390600	0.2586100	-0.2274700	-0.4368700	0.0535000	-0.2042400	-0.3558900	0.3177200	-0.2321500	0.0002500	0.3140500	-0.2296700	-0.0001800	0.0959600	-0.2099200	-0.0402500
3	0.0333333	0.2701200	1.1340000	-0.2312000	0.2886400	1.1365800	-0.0536800	0.3383600	0.9257100	0.1197400	0.4202500	0.7552900	0.3215600	0.2619400	1.1297600	-0.4114000	0.3122200	0.9458300	-0.5973200	0.3822400	0.7744800	-0.7871500	0.2743900	0.5819200	-0.2145900	0.2960700	0.5886000	-0.0983200	0.1888000	0.2107300	-0.0668300	0.1338200	-0.1780900	-0.0386700	0.2576500	0.5757200	-0.3324300	0.1530300	0.2145300	-0.3365000	0.0903700	-0.1725500	-0.3699800	0.2638800	-0.2288800	-0.4389400	0.2586300	-0.2275700	-0.4367800	0.0533400	-0.2044400	-0.3559600	0.3176100	-0.2322700	0.0003200	0.3139400	-0.2298100	-0.0001200	0.0961000	-0.2098100	-0.0402900
4	0.0500000	0.2699400	1.1340900	-0.2312500	0.2883700	1.1366600	-0.0538100	0.3385100	0.9258300	0.1200200	0.4204200	0.7556800	0.3208200	0.2618300	1.1298700	-0.4113900	0.3120200	0.9459200	-0.5972700	0.3820700	0.7748300	-0.7869600	0.2742100	0.5827100	-0.2146200	0.2959000	0.5894700	-0.0982500	0.1889200	0.2110200	-0.0666900	0.1337200	-0.1780000	-0.0387100	0.2574700	0.5764300	-0.3325800	0.1530400	0.2143900	-0.3364000	0.0903800	-0.1726700	-0.3699000	0.2638400	-0.2290000	-0.4388000	0.2586000	-0.2277100	-0.4366700	0.0531800	-0.2046500	-0.3560300	0.3175700	-0.2323900	0.0003900	0.3139000	-0.2299300	-0.0000500	0.0962100	-0.2097200	-0.0402700
5	0.0666667	0.2697600	1.1341900	-0.2313100	0.2881000	1.1367400	-0.0539300	0.3386800	0.9258100	0.1203600	0.4205700	0.7560900	0.3200600	0.2617000	1.1300500	-0.4113900	0.3117600	0.9460500	-0.5971900	0.3819200	0.7751700	-0.7867400	0.2739600	0.5837000	-0.2147600	0.2956600	0.5905300	-0.0983000	0.1890800	0.2114000	-0.0665900	0.1335400	-0.1779800	-0.0387900	0.2571700	0.5773300	-0.3328200	0.1531000	0.2142300	-0.3362700	0.0904500	-0.1727700	-0.3698300	0.2637500	-0.2291400	-0.4386800	0.2585000	-0.2278800	-0.4365800	0.0530400	-0.2048200	-0.3561300	0.3175800	-0.2324500	0.0005100	0.3139100	-0.2300100	0.0000600	0.0962600	-0.2097300	-0.0402700
6	0.0833333	0.2695700	1.1342700	-0.2313300	0.2878300	1.1368100	-0.0539600	0.3388300	0.9258500	0.1207100	0.4207600	0.7560700	0.3196600	0.2615800	1.1301900	-0.4114100	0.3114800	0.9462900	-0.5970900	0.3817400	0.7749800	-0.7865200	0.2737200	0.5848000	-0.2149000	0.2953600	0.5916100	-0.0983700	0.1892200	0.2118700	-0.0665800	0.1333100	-0.1779700	-0.0388800	0.2570800	0.5782900	-0.3330000	0.1530900	0.2144400	-0.3361700	0.0905100	-0.1726200	-0.3697400	0.2636300	-0.2292000	-0.4385600	0.2584300	-0.2279200	-0.4365000	0.0527900	-0.2049400	-0.3562100	0.3176200	-0.2324200	0.0006400	0.3139600	-0.2300200	0.0001900	0.0968900	-0.2093200	-0.0402700
7	0.1000000	0.2694000	1.1344100	-0.2313800	0.2876100	1.1369000	-0.0540700	0.3389700	0.9257700	0.1210800	0.4211100	0.7564800	0.3192000	0.2614900	1.1303500	-0.4113700	0.3112200	0.9463600	-0.5969500	0.3816800	0.7754000	-0.7862900	0.2733800	0.5857700	-0.2151000	0.2950900	0.5926200	-0.0984600	0.1894200	0.2123200	-0.0665100	0.1330400	-0.1781000	-0.0390000	0.2566900	0.5792600	-0.3333000	0.1531800	0.2142400	-0.3360100	0.0906300	-0.1726100	-0.3697000	0.2634500	-0.2292600	-0.4384600	0.2582700	-0.2279700	-0.4364000	0.0525600	-0.2049700	-0.3563700	0.3176700	-0.2323700	0.0007600	0.3140100	-0.2299900	0.0003100	0.0962800	-0.2100100	-0.0405400
8	0.1166667	0.2693000	1.1345600	-0.2314000	0.2874700	1.1370100	-0.0541800	0.3390700	0.9257500	0.1214100	0.4213000	0.7565200	0.3188900	0.2613600	1.1306300	-0.4113300	0.3110000	0.9466600	-0.5968500	0.3816200	0.7752500	-0.7860700	0.2731200	0.5868800	-0.2152500	0.2947500	0.5937300	-0.0985900	0.1895300	0.2127500	-0.0665400	0.1327700	-0.1781600	-0.0390800	0.2565100	0.5801800	-0.3334700	0.1531800	0.2144000	-0.3358400	0.0907500	-0.1725700	-0.3696900	0.2631600	-0.2293100	-0.4384400	0.2579600	-0.2280500	-0.4364200	0.0527100	-0.2050900	-0.3564000	0.3177400	-0.2323600	0.0008400	0.3140500	-0.2299900	0.0003900	0.0968100	-0.2094800	-0.0402500
9	0.1333333	0.2692400	1.1346800	-0.2313800	0.2874300	1.1370400	-0.0542100	0.3391300	0.9256900	0.1216900	0.4215100	0.7566900	0.3186400	0.2612900	1.1308400	-0.4112700	0.3108100	0.9468000	-0.5967300	0.3816100	0.7751700	-0.7858900	0.2728200	0.5878900	-0.2154000	0.2944900	0.5947600	-0.0987500	0.1895900	0.2131600	-0.0666500	0.1325200	-0.1782700	-0.0391300	0.2561600	0.5812000	-0.3336100	0.1531700	0.2144700	-0.3356700	0.0908400	-0.1725200	-0.3696900	0.2628800	-0.2292700	-0.4384400	0.2576500	-0.2280300	-0.4364500	0.0527900	-0.2051800	-0.3563800	0.3177700	-0.2322800	0.0009000	0.3140700	-0.2299300	0.0004500	0.0968000	-0.2095500	-0.0402700
